# xmcd
#
# Track frame offsets: 
#        150
#        17387
#        35387
#        49712
#        66062
#        87062
#        101387
#        113295
#        125491
#        145073
#        158839
#        171620
#        187806
#        204551
#        220676
#        238354
#        256054
#
# Disc length: 3545 seconds
#
# Revision: 0
# Processed by: cddbd v1.5.2PL0 Copyright (c) Steve Scherf et al.
# Submitted via: ExactAudioCopy v0.95b4
#
DISCID=d90dd711
DTITLE=Various Artist - Bundy Country 2
DYEAR=2008
DGENRE=Country
TTITLE0=Lee Kernaghan - The New Bush
TTITLE1=Trace Adkins - Honky Tonk Badonkadonk
TTITLE2=Miranda Lambert - Gunpowder and Lead
TTITLE3=Montgomery Gentry - What Do Ya Think About That
TTITLE4=Alan Jackson - Small Town Southern Man
TTITLE5=Melinda Schneider - Grassy
TTITLE6=James Blundell - Drive On
TTITLE7=Jonah's Road - Giddy Up
TTITLE8=Col Finley - Get Your Country On
TTITLE9=Tania Kernaghan - Harley McTaggart
TTITLE10=Adam Harvey - The House That Jack Built
TTITLE11=The Flood - Can't Work No Longer
TTITLE12=Matt Scullion - Put It Down To Experience
TTITLE13=Toby Keith - Honkytonk U
TTITLE14=Morgan Evans - Big Skies
TTITLE15=Lonestar - Mountains
TTITLE16=Peter Denahy - Sort Of Dunno Nothin'
EXTD=
EXTT0=
EXTT1=
EXTT2=
EXTT3=
EXTT4=
EXTT5=
EXTT6=
EXTT7=
EXTT8=
EXTT9=
EXTT10=
EXTT11=
EXTT12=
EXTT13=
EXTT14=
EXTT15=
EXTT16=
PLAYORDER=
